<svg width="34" height="34" viewBox="0 0 34 34" fill="none" xmlns="http://www.w3.org/2000/svg">
<rect width="34" height="34" rx="8" fill="url(#paint0_linear)"/>
<g clip-path="url(#clip0)">
<g filter="url(#filter0_d)">
<path d="M19.99 11.954C20.1726 11.7696 20.4208 11.6651 20.6804 11.6632C20.9399 11.6613 21.1896 11.7622 21.3749 11.9438C21.5603 12.1255 21.6662 12.3731 21.6695 12.6326C21.6728 12.8921 21.5733 13.1423 21.3927 13.3287L16.166 19.8627C16.0762 19.9593 15.9678 20.0369 15.8474 20.0908C15.727 20.1447 15.5969 20.1737 15.465 20.1762C15.3331 20.1787 15.202 20.1546 15.0796 20.1053C14.9572 20.056 14.846 19.9826 14.7527 19.8893L11.2873 16.4253C11.1032 16.2411 10.9998 15.9913 10.9998 15.7308C10.9999 15.4703 11.1034 15.2205 11.2877 15.0363C11.4719 14.8522 11.7217 14.7488 11.9822 14.7488C12.2427 14.7489 12.4925 14.8524 12.6767 15.0367L15.4173 17.778L19.964 11.9847C19.9722 11.9741 19.9812 11.9641 19.9907 11.9547L19.99 11.954Z" fill="#F5F5F5"/>
</g>
</g>
<defs>
<filter id="filter0_d" x="10.9998" y="11.6631" width="10.6698" height="10.5132" filterUnits="userSpaceOnUse" color-interpolation-filters="sRGB">
<feFlood flood-opacity="0" result="BackgroundImageFix"/>
<feColorMatrix in="SourceAlpha" type="matrix" values="0 0 0 0 0 0 0 0 0 0 0 0 0 0 0 0 0 0 127 0" result="hardAlpha"/>
<feOffset dy="2"/>
<feColorMatrix type="matrix" values="0 0 0 0 0 0 0 0 0 0 0 0 0 0 0 0 0 0 0.1 0"/>
<feBlend mode="normal" in2="BackgroundImageFix" result="effect1_dropShadow"/>
<feBlend mode="normal" in="SourceGraphic" in2="effect1_dropShadow" result="shape"/>
</filter>
<linearGradient id="paint0_linear" x1="17" y1="0" x2="17" y2="34" gradientUnits="userSpaceOnUse">
<stop stop-color="#89F09C"/>
<stop offset="1" stop-color="#3CC755"/>
</linearGradient>
<clipPath id="clip0">
<rect width="11.3333" height="11.3333" fill="white" transform="translate(11 11)"/>
</clipPath>
</defs>
</svg>
