<svg width="42" height="42" viewBox="0 0 42 42" fill="none" xmlns="http://www.w3.org/2000/svg">
<rect width="42" height="42" rx="7" fill="#FEF0F0"/>
<path d="M30.5161 15.6887C30.2058 14.9669 29.7584 14.3128 29.1988 13.763C28.6389 13.2115 27.9787 12.7733 27.2542 12.4722C26.5029 12.1586 25.6971 11.9981 24.8835 12C23.7422 12 22.6286 12.314 21.6609 12.9071C21.4294 13.049 21.2095 13.2048 21.0011 13.3746C20.7928 13.2048 20.5729 13.049 20.3413 12.9071C19.3736 12.314 18.2601 12 17.1188 12C16.2969 12 15.5005 12.1582 14.7481 12.4722C14.0212 12.7745 13.366 13.2094 12.8034 13.763C12.2432 14.3122 11.7956 14.9664 11.4862 15.6887C11.1644 16.44 11 17.2377 11 18.0587C11 18.8332 11.1574 19.6403 11.47 20.4613C11.7316 21.1474 12.1066 21.8591 12.5858 22.5778C13.3452 23.7151 14.3893 24.9013 15.6857 26.1037C17.8341 28.0969 19.9617 29.4738 20.052 29.5296L20.6006 29.8831C20.8437 30.039 21.1563 30.039 21.3993 29.8831L21.948 29.5296C22.0383 29.4715 24.1635 28.0969 26.3143 26.1037C27.6107 24.9013 28.6548 23.7151 29.4141 22.5778C29.8934 21.8591 30.2707 21.1474 30.53 20.4613C30.8426 19.6403 31 18.8332 31 18.0587C31.0023 17.2377 30.8379 16.44 30.5161 15.6887V15.6887Z" fill="url(#paint0_linear)"/>
<defs>
<linearGradient id="paint0_linear" x1="21" y1="12" x2="21" y2="30" gradientUnits="userSpaceOnUse">
<stop stop-color="#FFB0B0"/>
<stop offset="1" stop-color="#FF4343"/>
</linearGradient>
</defs>
</svg>
