<svg width="42" height="42" viewBox="0 0 42 42" fill="none" xmlns="http://www.w3.org/2000/svg">
<rect x="0.5" y="0.5" width="41" height="41" rx="6.5" fill="#F5F5F5" stroke="#DDDDDD"/>
<path d="M30.0566 15.8859C30.0566 15.8858 30.0566 15.8857 30.0565 15.8856L30.5161 15.6887C30.8379 16.44 31.0023 17.2377 31 18.0587C31 18.8332 30.8426 19.6403 30.53 20.4613C30.2707 21.1474 29.8934 21.8591 29.4141 22.5778L11.9458 15.8856C12.2296 15.2233 12.6399 14.6234 13.1535 14.12L13.1541 14.1194C13.6712 13.6106 14.2725 13.2115 14.9401 12.9338L14.9407 12.9336C15.6313 12.6454 16.3622 12.5 17.1188 12.5C18.1682 12.5 19.1913 12.7886 20.0801 13.3334L20.0801 13.3334C20.2928 13.4637 20.4944 13.6066 20.6853 13.7622L21.0011 14.0195L21.317 13.7622C21.5079 13.6066 21.7095 13.4637 21.9222 13.3334L21.9222 13.3334C22.811 12.7886 23.8341 12.5 24.8835 12.5L24.8847 12.5C25.6317 12.4983 26.3716 12.6456 27.0616 12.9336L27.0623 12.9339C27.7274 13.2104 28.3337 13.6127 28.848 14.1192L28.8484 14.1196C29.3615 14.6238 29.7719 15.2237 30.0566 15.8859ZM30.0566 15.8859C30.3518 16.575 30.5021 17.3052 30.5 18.0573V18.0587C30.5 18.7651 30.3564 19.5119 30.0627 20.2834L30.0623 20.2845C29.8189 20.9286 29.4608 21.6066 28.9983 22.3001M30.0566 15.8859L28.9983 22.3001M28.9983 22.3001C28.2661 23.3969 27.2501 24.5537 25.9742 25.7371C23.8548 27.7013 21.7577 29.0575 21.6773 29.1092L21.6772 29.1093L21.1295 29.4622C21.1294 29.4623 21.1292 29.4624 21.1291 29.4624C21.0507 29.5125 20.9494 29.5125 20.871 29.4625C20.8708 29.4624 20.8706 29.4623 20.8705 29.4622L20.3228 29.1093L20.3228 29.1092L20.3149 29.1043C20.315 29.1044 20.3149 29.1043 20.3147 29.1042C20.3141 29.1038 20.3116 29.1022 20.3067 29.0991L20.2834 29.0841C20.2637 29.0714 20.2364 29.0536 20.202 29.0309C20.1333 28.9855 20.0366 28.9208 19.916 28.8384C19.6748 28.6734 19.3383 28.4373 18.9379 28.1412C18.1364 27.5484 17.0827 26.7177 16.0258 25.7372L16.0257 25.7371C14.7499 24.5538 13.7341 23.397 13.0018 22.3004L28.9983 22.3001ZM27.2542 12.4722C26.5029 12.1586 25.6971 11.9981 24.8835 12C23.7422 12 22.6286 12.314 21.6609 12.9071C21.4294 13.049 21.2095 13.2048 21.0011 13.3746L27.2542 12.4722ZM11.5 18.0587C11.5 17.3056 11.6506 16.5748 11.9458 15.8857L13.0017 22.3001C12.5398 21.6074 12.1834 20.9289 11.9372 20.2832C11.6435 19.5118 11.5 18.765 11.5 18.0587Z" stroke="#DDDDDD"/>
</svg>
