<svg width="32" height="32" viewBox="0 0 32 32" fill="none" xmlns="http://www.w3.org/2000/svg">
<rect x="0.5" y="0.5" width="31" height="31" rx="6.5" fill="#F5F5F5" stroke="#DDDDDD"/>
<path d="M21.7549 11.6125L21.7545 11.6121C21.3973 11.2646 20.9759 10.9883 20.5131 10.7983L20.5125 10.798C20.0324 10.6002 19.5174 10.4988 18.9973 10.5L18.9961 10.5C18.265 10.5 17.5529 10.6986 16.9348 11.0728L16.9348 11.0728C16.7869 11.1623 16.6468 11.2604 16.5143 11.367L16.2008 11.6193L15.8873 11.367C15.7548 11.2604 15.6148 11.1623 15.4669 11.0728L15.4669 11.0728C14.8487 10.6986 14.1366 10.5 13.4055 10.5C12.8782 10.5 12.3696 10.6 11.8892 10.798L11.8886 10.7983C11.4241 10.9891 11.0062 11.2631 10.6469 11.6122L10.6463 11.6129L10.6463 11.6129C10.2899 11.9579 10.0054 12.3688 9.80875 12.8221L21.7549 11.6125ZM21.7549 11.6125C22.1111 11.9581 22.3957 12.3691 22.593 12.8223C22.7975 13.2939 22.9015 13.793 22.9 14.307V14.3084C22.9 14.7902 22.8009 15.3032 22.5951 15.8371L22.5946 15.8382M21.7549 11.6125L22.5946 15.8382M12.7115 19.6606L12.7115 19.6607C13.4676 20.3534 14.2219 20.9408 14.7962 21.3603C15.0829 21.5697 15.3238 21.7366 15.4962 21.8531C15.5824 21.9113 15.6514 21.9569 15.7002 21.9887C15.7247 22.0047 15.7439 22.0171 15.7577 22.0259C15.7728 22.0355 15.7787 22.0392 15.778 22.0388L15.7859 22.0436L15.7859 22.0437L16.1799 22.2944C16.18 22.2945 16.1801 22.2945 16.1802 22.2946C16.1855 22.2979 16.1922 22.3 16.2 22.3C16.2078 22.3 16.2145 22.2979 16.2198 22.2946C16.2199 22.2945 16.22 22.2945 16.2201 22.2944L16.6141 22.0437L16.6142 22.0436C16.6694 22.0085 18.1714 21.0492 19.6885 19.6606H12.7115ZM12.7115 19.6606C11.7986 18.8244 11.0753 18.0101 10.556 17.242C10.2285 16.7569 9.97748 16.2841 9.80482 15.8368C9.5991 15.303 9.5 14.7901 9.5 14.3084C9.5 13.7933 9.60418 13.2937 9.80874 12.8221L12.7115 19.6606ZM22.5946 15.8382C22.4242 16.2838 22.172 16.756 21.844 17.242M22.5946 15.8382L21.844 17.242M21.844 17.242C21.3247 18.0101 20.6014 18.8243 19.6887 19.6605L21.844 17.242Z" stroke="#DDDDDD"/>
</svg>
